<?xml version="1.0" encoding="utf-8"?>
<!-- Generator: Adobe Illustrator 21.0.0, SVG Export Plug-In . SVG Version: 6.00 Build 0)  -->
<svg version="1.1" id="Layer_1" xmlns="http://www.w3.org/2000/svg" xmlns:xlink="http://www.w3.org/1999/xlink" x="0px" y="0px"
	 viewBox="0 0 1343.8 632.9" style="enable-background:new 0 0 1343.8 632.9;" xml:space="preserve">
<style type="text/css">
	.st0{fill:#E6007E;}
	.st1{fill:#FFFFFF;}
	.st2{fill:#7A7A7A;}
</style>
<g>
	<path class="st0" d="M302.2,0C135.3,0,0,135.3,0,302.2C0,362.1,17.4,418,47.5,465c2.3,3.6,4.7,7.2,7.2,10.7h0l-44,157.2l156.6-60.1
		c40.6,20.3,86.3,31.6,134.8,31.6c166.9,0,302.2-135.3,302.2-302.2S469.1,0,302.2,0z"/>
	<path class="st1" d="M294.1,256.7c0,25.2-8.2,44.4-24.7,57.8c-16.5,13.4-39.9,20.1-70.4,20.1H174v90.2h-39.4v-241H204
		c30.1,0,52.7,6.2,67.7,18.5C286.6,214.6,294.1,232.7,294.1,256.7z M174,301.5h20.9c20.2,0,35-3.5,44.5-10.5c9.4-7,14.2-18,14.2-33
		c0-13.8-4.2-24.2-12.7-31c-8.5-6.8-21.6-10.2-39.6-10.2H174V301.5z"/>
	<path class="st1" d="M381.6,328.5v96.2h-39.4v-241h68.1c31.1,0,54.1,5.8,69.1,17.5c14.9,11.6,22.4,29.2,22.4,52.7
		c0,30-15.6,51.4-46.8,64.1L523,424.8h-44.8l-57.7-96.2H381.6z M381.6,295.9H409c18.3,0,31.6-3.4,39.9-10.2
		c8.2-6.8,12.4-16.9,12.4-30.3c0-13.6-4.4-23.4-13.3-29.3c-8.9-5.9-22.3-8.9-40.2-8.9h-26V295.9z"/>
	<path class="st2" d="M749.8,424.8l-69.9-201.2h-1.3c1.9,29.9,2.8,57.9,2.8,84.1v117.2h-35.8v-241h55.5l66.9,191.7h1L838,183.8h55.7
		v241h-37.9V305.6c0-12,0.3-27.6,0.9-46.8c0.6-19.2,1.1-30.9,1.6-34.9h-1.3l-72.4,200.9H749.8z"/>
	<path class="st2" d="M1092.6,424.8l-24.1-66.9h-92.1l-23.6,66.9h-41.5l90.2-241.9h42.9l90.2,241.9H1092.6z M1058.2,323.9
		l-22.6-65.6c-1.6-4.4-3.9-11.3-6.8-20.8c-2.9-9.4-4.9-16.4-6-20.8c-3,13.5-7.3,28.3-13,44.3L988,323.9H1058.2z"/>
	<path class="st2" d="M1343.8,424.8h-45.3l-60.3-98.6l-60.8,98.6h-42.2l79.9-124.9l-74.8-116h43.8l55.7,91.1l55.7-91.1h42.5
		l-75.3,116.7L1343.8,424.8z"/>
</g>
</svg>
